<?xml version="1.0" ?><!DOCTYPE svg  PUBLIC '-//W3C//DTD SVG 1.1//EN'  'http://www.w3.org/Graphics/SVG/1.1/DTD/svg11.dtd'><svg enable-background="new 0 0 48 48" version="1.1" viewBox="0 0 48 48" xml:space="preserve" xmlns="http://www.w3.org/2000/svg" xmlns:xlink="http://www.w3.org/1999/xlink"><g id="Layer_5"><g><path d="M21.774,47.771l-1.434-3.853l-0.237-0.81c4.83-0.5,8.996-3.222,11.449-7.142c0,0.011,0,0.02,0,0.03    c0.15-0.239,0.303-0.504,0.457-0.783c0.029-0.059,0.059-0.119,0.09-0.175c2.092-3.938,4.111-11.174,4.111-11.174l-0.012-0.003    c0.498-1.667,0.773-3.429,0.773-5.258c0-10.193-8.266-18.457-18.457-18.457C8.323,0.148,0.06,8.412,0.06,18.605    c0,1.41,0.163,2.781,0.467,4.097l0.001,0.005c0.007,0.033,0.017,0.065,0.025,0.099c0.227,0.884,1.925,7.312,4.092,11.645    c0.001,0.003,0.002,0.004,0.002,0.005c0.213,0.427,0.43,0.84,0.652,1.219v-0.002c2.441,4.119,6.753,6.973,11.766,7.443    l-0.143,0.552l-1.659,4.104l0.016,0.009c-0.014,0.023-0.02,0.049-0.032,0.071h6.538c-0.011-0.022-0.02-0.047-0.031-0.068    L21.774,47.771z M7.466,33.204c-0.013-0.021-0.025-0.029-0.039-0.053c-1.832-2.778-3.845-10.877-3.845-10.877l0.021,0.018    c-0.292-1.183-0.467-2.414-0.467-3.687c0-8.495,6.887-15.381,15.38-15.381c8.494,0,15.378,6.886,15.378,15.381    c0,1.056-0.135,2.077-0.336,3.073l0.027,0.003c0,0-0.061,0.269-0.172,0.731c-0.008,0.035-0.014,0.071-0.023,0.105    c-0.508,2.088-1.959,7.606-3.795,10.648c-0.016,0.023-0.025,0.033-0.039,0.054c-1.996,4.093-6.182,6.919-11.041,6.919    C13.651,40.138,9.461,37.305,7.466,33.204z" fill="#FFFFFF"/><path d="M47.939,23.32c0-7.612-5.498-13.925-12.734-15.223c0.623,0.89,1.256,1.951,1.791,3.159    c4.885,1.838,8.363,6.539,8.363,12.064c0,0.886-0.111,1.743-0.283,2.577l0.023,0.003c0,0-0.051,0.226-0.145,0.612    c-0.006,0.031-0.012,0.059-0.02,0.09c-0.424,1.751-1.641,6.381-3.184,8.931c-0.014,0.02-0.021,0.028-0.033,0.046    c-1.674,3.434-5.184,5.803-9.258,5.803c-1.316,0-2.562-0.271-3.717-0.723l-0.004,0.006l-1.572,1.053    c-0.348,0.267-0.686,0.504-0.902,0.604c1.504,0.829,3.18,1.39,4.979,1.558l-0.121,0.463l-1.393,3.443l0.014,0.008    c-0.012,0.019-0.016,0.039-0.027,0.059h5.486c-0.014-0.02-0.02-0.039-0.027-0.059l0.014-0.008l-1.201-3.232l-0.199-0.679    c4.053-0.419,7.547-2.702,9.605-5.991c0,0.009,0,0.018,0,0.025c0.127-0.199,0.256-0.423,0.381-0.656    c0.027-0.048,0.051-0.1,0.078-0.147c1.754-3.301,3.449-9.372,3.449-9.372l-0.012-0.002C47.711,26.333,47.939,24.854,47.939,23.32z    " fill="#FFFFFF"/></g></g></svg>